<svg xmlns="http://www.w3.org/2000/svg" data-name="Layer 1" viewBox="0 0 100 125" x="0px" y="0px"><title>Artboard 24</title><path d="M86.52,32a41.28,41.28,0,0,1,8.55,25.28,41.77,41.77,0,0,1-83.51,1.35H7.48a2.54,2.54,0,0,1-2-4.17l9.23-11.08a2.79,2.79,0,0,1,4.29,0l9.23,11.08a2.54,2.54,0,0,1-2,4.17h-4a31,31,0,1,0,5.4-18.87.74.74,0,0,1-.58.32.76.76,0,0,1-.6-.27l-6.12-7.34a.74.74,0,0,1,0-.93A42.06,42.06,0,0,1,47.91,15.81v-4H43.79A5.39,5.39,0,1,1,43.79,1h19a5.39,5.39,0,1,1,0,10.77H58.68v4a41.57,41.57,0,0,1,20.26,8.48l4.6-4.6a5.39,5.39,0,1,1,7.61,7.62ZM74.6,57.22A21.15,21.15,0,0,0,53.45,36.07V57.22l-19.8,7.45a21.15,21.15,0,0,0,41-7.45Z"/><text x="0" y="115" fill="#000000" font-size="5px" font-weight="bold" font-family="'Helvetica Neue', Helvetica, Arial-Unicode, Arial, Sans-serif">Created by Gregor Cresnar</text><text x="0" y="120" fill="#000000" font-size="5px" font-weight="bold" font-family="'Helvetica Neue', Helvetica, Arial-Unicode, Arial, Sans-serif">from the Noun Project</text></svg>